<?xml version="1.0" encoding="UTF-8" standalone="no"?>
<svg
   xmlns:dc="http://purl.org/dc/elements/1.1/"
   xmlns:cc="http://creativecommons.org/ns#"
   xmlns:rdf="http://www.w3.org/1999/02/22-rdf-syntax-ns#"
   xmlns:svg="http://www.w3.org/2000/svg"
   xmlns="http://www.w3.org/2000/svg"
   xmlns:sodipodi="http://sodipodi.sourceforge.net/DTD/sodipodi-0.dtd"
   xmlns:inkscape="http://www.inkscape.org/namespaces/inkscape"
   height="50"
   viewBox="-66 0 40 40"
   width="50"
   id="svg2"
   version="1.1"
   inkscape:version="0.91 r13725"
   sodipodi:docname="placeholder_black.svg">
  <metadata
     id="metadata16">
    <rdf:RDF>
      <cc:Work
         rdf:about="">
        <dc:format>image/svg+xml</dc:format>
        <dc:type
           rdf:resource="http://purl.org/dc/dcmitype/StillImage" />
        <dc:title></dc:title>
      </cc:Work>
    </rdf:RDF>
  </metadata>
  <defs
     id="defs14" />
  <sodipodi:namedview
     pagecolor="#ffffff"
     bordercolor="#666666"
     borderopacity="1"
     objecttolerance="10"
     gridtolerance="10"
     guidetolerance="10"
     inkscape:pageopacity="0"
     inkscape:pageshadow="2"
     inkscape:window-width="640"
     inkscape:window-height="480"
     id="namedview12"
     showgrid="false"
     inkscape:zoom="1.61875"
     inkscape:cx="-56.351822"
     inkscape:cy="30.064445"
     inkscape:current-layer="svg2"
     units="px" />
  <path
     style="fill:#808080;fill-opacity:1"
     d="m -46.001343,0 c -8.200683,0 -14.872436,6.6727297 -14.872436,14.874023 0,4.49646 2.297973,8.003479 4.859008,11.495606 L -46.021728,40 c 0,0 0.0079,-0.01001 0.02197,-0.02954 0.500489,-0.679626 9.440613,-12.817444 10.014649,-13.60083 2.56134,-3.492127 4.858887,-6.999146 4.858887,-11.495606 C -31.12622,6.6928711 -37.765259,0.03265391 -45.939087,0 l -0.06226,0 z m 0.0016,5.7800297 c 5.014344,0 9.093872,4.0793453 9.093872,9.0939933 0,5.014344 -4.079528,9.093872 -9.093872,9.093872 -5.014647,0 -9.093993,-4.079528 -9.093993,-9.093872 0,-5.014648 4.079346,-9.0939933 9.093994,-9.0939933 z"
     id="path4"
     inkscape:connector-curvature="0" />
  <path
     style="fill:#000000;fill-opacity:1"
     d="m -45.999756,0 0,5.7326664 c 5.000446,0.016419 9.063722,4.0891 9.063722,9.0936276 0,5.004223 -4.063276,9.121376 -9.063722,9.137797 l 0,16.006368 c 0.500488,-0.679626 9.440613,-12.817444 10.014649,-13.60083 2.56134,-3.492127 4.858887,-6.999146 4.858887,-11.495606 C -31.12622,6.6928711 -37.765259,0.03265391 -45.939087,0 Z"
     id="path6"
     inkscape:connector-curvature="0"
     sodipodi:nodetypes="ccscccscc" />
</svg>
